<svg width="30" height="30" viewBox="0 0 30 30" fill="none" xmlns="http://www.w3.org/2000/svg">
<path fill-rule="evenodd" clip-rule="evenodd" d="M29.484 5.48372e-06C29.4578 0.00128588 29.4317 0.00462954 29.406 0.0100055C26.646 0.0230055 24.103 0.594006 21.795 1.55901C21.7815 1.56343 21.7681 1.56844 21.755 1.57401C21.735 1.58401 21.711 1.58901 21.689 1.59801C21.6462 1.61634 21.6061 1.64058 21.57 1.67001C21.381 1.76001 21.173 1.86701 20.951 1.98801C20.9378 1.99344 20.9247 1.99945 20.912 2.00601C20.888 2.01801 20.866 2.03301 20.842 2.04501C20.745 2.09801 20.69 2.12601 20.598 2.17801C17.343 3.89101 14.598 6.30401 12.385 9.01201C11.9655 8.83006 11.5231 8.70658 11.07 8.64501V8.64601C9.38401 8.43901 7.54901 9.04901 5.84401 10.242C3.57001 11.834 1.46501 14.475 0.0410056 17.809C-0.00220899 17.9108 -0.0104549 18.0241 0.0175583 18.131C0.0455715 18.238 0.108263 18.3327 0.195822 18.4003C0.283381 18.4678 0.390866 18.5044 0.501456 18.5044C0.612047 18.5043 0.719502 18.4676 0.807006 18.4C2.87001 16.8 4.47501 15.937 5.59701 15.734C6.15901 15.634 6.58701 15.685 6.94501 15.855C7.25401 16.002 7.52501 16.253 7.77301 16.627C7.70901 16.777 7.63001 16.927 7.56801 17.077C7.53056 17.1684 7.52102 17.2689 7.5406 17.3657C7.56017 17.4625 7.60799 17.5513 7.67801 17.621L8.75201 18.695C7.81901 20.101 6.85901 21.701 5.82001 23.495C5.81901 23.495 5.81601 23.494 5.81401 23.504C5.81017 23.5109 5.80651 23.5179 5.80301 23.525C5.80093 23.5296 5.79893 23.5343 5.79701 23.539C5.79564 23.5423 5.7943 23.5457 5.79301 23.549C5.78713 23.5618 5.78179 23.5748 5.77701 23.588C5.77564 23.5913 5.7743 23.5947 5.77301 23.598C5.7692 23.6102 5.76586 23.6225 5.76301 23.635C5.75886 23.6512 5.75552 23.6675 5.75301 23.684C5.75172 23.6936 5.75072 23.7033 5.75001 23.713C5.74921 23.7197 5.74854 23.7263 5.74801 23.733C5.74797 23.7367 5.74797 23.7403 5.74801 23.744C5.74784 23.7607 5.7485 23.7774 5.75001 23.794C5.7508 23.8074 5.75214 23.8207 5.75401 23.834C5.75464 23.8373 5.75531 23.8407 5.75601 23.844C5.75918 23.8605 5.76318 23.8769 5.76801 23.893C5.77232 23.9079 5.77733 23.9226 5.78301 23.937C5.78781 23.9499 5.79315 23.9626 5.79901 23.975C5.8054 23.9886 5.81241 24.002 5.82001 24.015C5.82067 24.015 5.82134 24.015 5.82201 24.015C5.82397 24.0184 5.82597 24.0217 5.82801 24.025C5.83558 24.036 5.84358 24.0467 5.85201 24.057C5.85364 24.0604 5.8553 24.0637 5.85701 24.067C5.86592 24.0774 5.87527 24.0874 5.88501 24.097C5.89306 24.1053 5.9014 24.1133 5.91001 24.121C5.91328 24.1251 5.91661 24.1291 5.92001 24.133C5.92263 24.1364 5.9253 24.1397 5.92801 24.143C5.93804 24.1511 5.94838 24.1587 5.95901 24.166C5.96163 24.1694 5.9643 24.1727 5.96701 24.176C5.97835 24.1842 5.99002 24.1918 6.00201 24.199C6.01659 24.2078 6.03161 24.2158 6.04701 24.223C6.05459 24.2265 6.06226 24.2299 6.07001 24.233C6.07726 24.2365 6.08459 24.2399 6.09201 24.243C6.09534 24.243 6.09867 24.243 6.10201 24.243C6.11488 24.2465 6.12789 24.2495 6.14101 24.252C6.15255 24.2558 6.16422 24.2591 6.17601 24.262C6.18367 24.2622 6.19134 24.2622 6.19901 24.262C6.21267 24.2626 6.22634 24.2626 6.24001 24.262C6.24267 24.262 6.24534 24.262 6.24801 24.262C6.28159 24.262 6.31509 24.2587 6.34801 24.252C6.36386 24.2488 6.37954 24.2448 6.39501 24.24C6.41128 24.2352 6.4273 24.2295 6.44301 24.223C6.4619 24.2148 6.48027 24.2055 6.49801 24.195C6.51001 24.185 6.51801 24.183 6.52901 24.175C8.31301 23.14 9.90801 22.182 11.309 21.252L12.346 22.289C12.4158 22.3592 12.5048 22.4072 12.6018 22.4267C12.6988 22.4463 12.7995 22.4367 12.891 22.399C13.037 22.339 13.185 22.26 13.332 22.197C14.136 22.724 14.422 23.339 14.244 24.387C14.051 25.52 13.201 27.133 11.602 29.195C11.5344 29.2825 11.4977 29.39 11.4976 29.5006C11.4976 29.6111 11.5342 29.7186 11.6018 29.8062C11.6693 29.8937 11.764 29.9564 11.871 29.9845C11.978 30.0125 12.0912 30.0042 12.193 29.961C15.527 28.537 18.168 26.431 19.76 24.158C21.279 21.988 21.833 19.612 20.98 17.596C23.673 15.419 26.08 12.728 27.795 9.53901C27.865 9.41701 27.907 9.33701 27.982 9.20501C28.14 8.93101 28.277 8.67401 28.391 8.43501C28.4077 8.4097 28.4221 8.38292 28.434 8.35501C28.434 8.35401 28.434 8.35101 28.436 8.35001C28.444 8.33001 28.461 8.30501 28.469 8.28701C28.4847 8.24949 28.4958 8.2102 28.502 8.17001C29.4996 5.73634 30.0086 3.13018 30 0.500005C30 0.434176 29.987 0.368994 29.9618 0.308201C29.9365 0.247407 29.8995 0.192199 29.8529 0.145743C29.8062 0.0992876 29.7509 0.0624996 29.69 0.0374901C29.6291 0.0124807 29.5638 -0.000257835 29.498 5.48372e-06C29.4973 4.15038e-06 29.4967 4.15038e-06 29.496 5.48372e-06C29.492 -4.2518e-05 29.488 -4.2518e-05 29.484 5.48372e-06ZM28.945 1.05701C28.8897 3.13703 28.4928 5.19381 27.77 7.14501L22.887 2.26401C24.8255 1.52858 26.8727 1.12068 28.945 1.05701V1.05701ZM21.801 2.68201L27.359 8.25201C27.315 8.33701 27.262 8.43301 27.213 8.52501C27.2123 8.52567 27.2117 8.52634 27.211 8.52701C27.1938 8.55064 27.1788 8.57574 27.166 8.60201C27.08 8.77001 26.984 8.93201 26.895 9.09801C26.799 9.26501 26.689 9.45101 26.623 9.58201C26.6134 9.60144 26.605 9.62148 26.598 9.64201C23.396 15.19 17.922 19.156 12.798 21.328L12.145 20.674C12.983 20.086 13.765 19.504 14.412 18.92C16.291 17.229 17.356 15.43 17.119 13.379C17.1153 13.3423 17.1076 13.306 17.096 13.271L17.086 13.248C17.0479 13.1379 16.9726 13.0445 16.873 12.984L16.834 12.961C16.7728 12.9235 16.7043 12.8996 16.633 12.891V12.881C14.581 12.644 12.78 13.71 11.088 15.588C10.503 16.237 9.91901 17.019 9.33001 17.859L8.63901 17.168C10.809 12.053 14.766 6.66501 20.309 3.47101C20.331 3.46318 20.3524 3.45382 20.373 3.44301C20.743 3.25601 21.372 2.90301 21.801 2.68201V2.68201ZM20.537 6.99401C19.903 6.99401 19.267 7.23401 18.787 7.71401C18.3253 8.17894 18.0664 8.80769 18.0667 9.46292C18.0671 10.1181 18.3268 10.7466 18.789 11.211C19.2533 11.6725 19.8813 11.9316 20.536 11.9316C21.1907 11.9316 21.8187 11.6725 22.283 11.211C22.7449 10.7466 23.0044 10.1184 23.0048 9.46342C23.0051 8.80843 22.7464 8.1799 22.285 7.71501C22.0554 7.48583 21.7828 7.30425 21.4828 7.1807C21.1828 7.05714 20.8614 6.99404 20.537 6.99501V6.99401ZM20.537 7.98801C20.913 7.98801 21.289 8.13201 21.578 8.42201C21.7154 8.55836 21.8245 8.7206 21.8988 8.89935C21.9732 9.0781 22.0114 9.26982 22.0112 9.46342C22.011 9.65702 21.9725 9.84867 21.8978 10.0273C21.8231 10.2059 21.7137 10.3679 21.576 10.504C21.44 10.6415 21.278 10.7507 21.0995 10.8252C20.921 10.8997 20.7294 10.938 20.536 10.938C20.3426 10.938 20.1511 10.8997 19.9725 10.8252C19.794 10.7507 19.6321 10.6415 19.496 10.504C19.3583 10.3679 19.2489 10.2059 19.1742 10.0273C19.0995 9.84867 19.061 9.65702 19.0608 9.46342C19.0606 9.26982 19.0988 9.0781 19.1732 8.89935C19.2475 8.7206 19.3566 8.55836 19.494 8.42201C19.784 8.13201 20.161 7.98801 20.537 7.98801V7.98801ZM10.051 9.64101C10.597 9.64601 11.109 9.79401 11.615 9.95301C11.452 10.176 11.293 10.411 11.133 10.641L11.098 10.693C10.708 11.254 10.325 11.833 9.95701 12.436C9.64701 12.937 9.36401 13.44 9.08701 13.947L8.94101 14.217C8.67396 14.7172 8.42021 15.2244 8.18001 15.738C7.92401 15.455 7.70801 15.108 7.37501 14.951C6.80101 14.679 6.13501 14.621 5.42001 14.75C4.44801 14.925 3.29401 15.544 2.03101 16.363C3.29601 14.121 4.78701 12.201 6.41601 11.061C7.45801 10.331 8.50201 9.86701 9.49201 9.68801C9.68201 9.65301 9.86901 9.63801 10.051 9.64101V9.64101ZM16.033 13.969C16.02 15.418 15.323 16.745 13.743 18.168C12.323 19.445 10.187 20.803 7.73301 22.268C9.19601 19.812 10.553 17.674 11.83 16.256C13.255 14.675 14.583 13.981 16.033 13.969ZM20.049 18.377C20.539 19.93 20.234 21.737 18.941 23.584C17.799 25.216 15.874 26.709 13.627 27.974C14.447 26.702 15.063 25.537 15.23 24.554C15.424 23.42 14.968 22.507 14.217 21.793C14.7486 21.5454 15.2734 21.2837 15.791 21.008L15.867 20.967C16.331 20.718 16.795 20.477 17.256 20.201C18.2172 19.6405 19.1494 19.0317 20.049 18.377V18.377ZM6.82201 20.807L2.92201 24.709L3.39501 25.184L5.46301 23.115C5.90981 22.3418 6.36316 21.5725 6.82301 20.807H6.82201ZM9.15601 23.211C8.42401 23.653 7.65101 24.105 6.84801 24.572L4.34201 27.078L4.81601 27.551L9.15601 23.211ZM5.34001 24.186L2.44701 27.078L2.92201 27.551L5.81401 24.658C5.80201 24.658 5.78901 24.648 5.77701 24.643C5.77329 24.6397 5.76962 24.6364 5.76601 24.633L5.71901 24.603L5.72501 24.613C5.68373 24.5876 5.6446 24.5588 5.60801 24.527C5.60395 24.5234 5.59995 24.5197 5.59601 24.516C5.58777 24.5089 5.57976 24.5016 5.57201 24.494C5.57001 24.494 5.56801 24.494 5.56601 24.494C5.56534 24.494 5.56467 24.494 5.56401 24.494C5.5623 24.4907 5.56064 24.4874 5.55901 24.484C5.55201 24.474 5.54401 24.474 5.53701 24.464C5.5343 24.4607 5.53163 24.4574 5.52901 24.454C5.52101 24.444 5.51201 24.44 5.50401 24.43C5.4891 24.4138 5.47476 24.3972 5.46101 24.38C5.45964 24.3767 5.4583 24.3734 5.45701 24.37C5.43901 24.347 5.42601 24.323 5.41001 24.299C5.38644 24.2694 5.36631 24.2372 5.35001 24.203C5.34701 24.193 5.34301 24.191 5.34001 24.186V24.186ZM2.44701 25.184L1.97301 25.656L2.44701 26.131L2.92001 25.656L2.44701 25.184ZM1.97301 27.551L1.50001 28.025L1.97301 28.498L2.44701 28.025L1.97301 27.551ZM3.86701 27.551L3.39501 28.025L3.86701 28.498L4.34201 28.025L3.86701 27.551Z" fill="url(#paint0_linear_1_3)"/>
<defs>
<linearGradient id="paint0_linear_1_3" x1="0.00100555" y1="15" x2="28" y2="15" gradientUnits="userSpaceOnUse">
<stop stop-color="#03EFFE"/>
<stop offset="0.46875" stop-color="#79E9F9"/>
<stop offset="1" stop-color="#FFF500"/>
</linearGradient>
</defs>
</svg>
